<svg width="12" height="14" viewBox="0 0 12 14" fill="none" xmlns="http://www.w3.org/2000/svg">
<path d="M5.49902 13.1035C5.83496 13.291 6.1709 13.291 6.50684 13.1035L8.12988 12.1777C8.27051 12.0957 8.3584 11.9902 8.39355 11.8613C8.42871 11.7324 8.41309 11.6055 8.34668 11.4805C8.28027 11.3594 8.17773 11.2842 8.03906 11.2549C7.90039 11.2256 7.7627 11.25 7.62598 11.3281L6.48926 11.9785V10.7891C6.48926 10.6289 6.44336 10.4971 6.35156 10.3936C6.25977 10.29 6.14355 10.2383 6.00293 10.2383C5.8584 10.2383 5.74023 10.29 5.64844 10.3936C5.55664 10.4971 5.51074 10.6289 5.51074 10.7891V11.9785L4.37402 11.3281C4.2373 11.25 4.09961 11.2256 3.96094 11.2549C3.82227 11.2842 3.71973 11.3594 3.65332 11.4805C3.58691 11.6055 3.57129 11.7324 3.60645 11.8613C3.6416 11.9902 3.73145 12.0957 3.87598 12.1777L5.49902 13.1035ZM1.65527 10.918C1.7959 10.9961 1.93555 11.0225 2.07422 10.9971C2.21289 10.9717 2.31543 10.8945 2.38184 10.7656C2.44824 10.6406 2.45898 10.5117 2.41406 10.3789C2.36914 10.2461 2.28223 10.1426 2.15332 10.0684L1.52051 9.7168L2.42285 9.19531C2.56738 9.11719 2.66309 9.00879 2.70996 8.87012C2.75684 8.73145 2.74121 8.60352 2.66309 8.48633C2.58496 8.36914 2.47949 8.29395 2.34668 8.26074C2.21387 8.22754 2.08105 8.24805 1.94824 8.32227L1.00488 8.85547V8.09375C1.00488 7.9375 0.959961 7.80664 0.870117 7.70117C0.780273 7.5957 0.666992 7.54297 0.530273 7.54297C0.389648 7.54297 0.275391 7.5957 0.1875 7.70117C0.0996094 7.80664 0.0556641 7.9375 0.0556641 8.09375V9.01367C0.0556641 9.44727 0.126953 9.7627 0.269531 9.95996C0.412109 10.1572 0.620117 10.334 0.893555 10.4902L1.65527 10.918ZM0.530273 6.27734C0.670898 6.27734 0.785156 6.22559 0.873047 6.12207C0.960938 6.01855 1.00488 5.88672 1.00488 5.72656V4.61328L2.08887 5.23438C2.21777 5.30859 2.34863 5.33008 2.48145 5.29883C2.61426 5.26758 2.72168 5.19336 2.80371 5.07617C2.88184 4.95898 2.89551 4.83105 2.84473 4.69238C2.79395 4.55371 2.69629 4.44531 2.55176 4.36719L1.53809 3.78711L2.52832 3.22461C2.62598 3.16992 2.70117 3.10059 2.75391 3.0166C2.80664 2.93262 2.83496 2.84473 2.83887 2.75293C2.84277 2.66113 2.81934 2.57422 2.76855 2.49219C2.69043 2.375 2.58594 2.30469 2.45508 2.28125C2.32422 2.25781 2.19629 2.28125 2.07129 2.35156L0.793945 3.07812C0.555664 3.21875 0.373047 3.38867 0.246094 3.58789C0.119141 3.78711 0.0556641 4.04883 0.0556641 4.37305V5.72656C0.0556641 5.88672 0.100586 6.01855 0.19043 6.12207C0.280273 6.22559 0.393555 6.27734 0.530273 6.27734ZM6.00293 3.1543C6.14355 3.1543 6.25977 3.10254 6.35156 2.99902C6.44336 2.89551 6.48926 2.76562 6.48926 2.60938V1.51953L7.31543 1.99414C7.44824 2.06836 7.58594 2.0918 7.72852 2.06445C7.87109 2.03711 7.97363 1.96289 8.03613 1.8418C8.08301 1.75977 8.10547 1.67578 8.10352 1.58984C8.10156 1.50391 8.07617 1.42188 8.02734 1.34375C7.97852 1.26562 7.90723 1.19922 7.81348 1.14453L6.54199 0.423828C6.35059 0.314453 6.1709 0.259766 6.00293 0.259766C5.83496 0.259766 5.65332 0.314453 5.45801 0.423828L4.18652 1.14453C4.09277 1.19922 4.02246 1.26562 3.97559 1.34375C3.92871 1.42188 3.9043 1.50391 3.90234 1.58984C3.90039 1.67578 3.9209 1.75977 3.96387 1.8418C4.03027 1.96289 4.13477 2.03711 4.27734 2.06445C4.41992 2.0918 4.55566 2.06836 4.68457 1.99414L5.51074 1.51953V2.60938C5.51074 2.76562 5.55664 2.89551 5.64844 2.99902C5.74023 3.10254 5.8584 3.1543 6.00293 3.1543ZM11.4697 6.27734C11.6064 6.27734 11.7197 6.22559 11.8096 6.12207C11.8994 6.01855 11.9443 5.88672 11.9443 5.72656V4.37305C11.9443 4.02148 11.8906 3.75684 11.7832 3.5791C11.6758 3.40137 11.4854 3.23438 11.2119 3.07812L9.92871 2.35156C9.80762 2.28125 9.68164 2.25781 9.55078 2.28125C9.41992 2.30469 9.31543 2.375 9.2373 2.49219C9.18652 2.57422 9.16211 2.66113 9.16406 2.75293C9.16602 2.84473 9.19336 2.93262 9.24609 3.0166C9.29883 3.10059 9.37598 3.16992 9.47754 3.22461L10.4678 3.78711L9.44824 4.36719C9.30371 4.44531 9.20703 4.55371 9.1582 4.69238C9.10938 4.83105 9.12402 4.95898 9.20215 5.07617C9.28027 5.19336 9.38672 5.26758 9.52148 5.29883C9.65625 5.33008 9.78613 5.30859 9.91113 5.23438L10.9951 4.61328V5.72656C10.9951 5.88672 11.04 6.01855 11.1299 6.12207C11.2197 6.22559 11.333 6.27734 11.4697 6.27734ZM10.3447 10.918L11.1064 10.4902C11.3838 10.334 11.5928 10.1572 11.7334 9.95996C11.874 9.7627 11.9443 9.44727 11.9443 9.01367V8.09375C11.9443 7.9375 11.9004 7.80664 11.8125 7.70117C11.7246 7.5957 11.6104 7.54297 11.4697 7.54297C11.3369 7.54297 11.2246 7.5957 11.1328 7.70117C11.041 7.80664 10.9951 7.9375 10.9951 8.09375V8.86133L10.0518 8.32227C9.91895 8.24805 9.78711 8.22754 9.65625 8.26074C9.52539 8.29395 9.4209 8.36914 9.34277 8.48633C9.26465 8.60352 9.24902 8.73145 9.2959 8.87012C9.34277 9.00879 9.43652 9.11719 9.57715 9.19531L10.4736 9.7168L9.84668 10.0684C9.71777 10.1426 9.63184 10.2461 9.58887 10.3789C9.5459 10.5117 9.55762 10.6406 9.62402 10.7656C9.69043 10.8945 9.79297 10.9717 9.93164 10.9971C10.0703 11.0225 10.208 10.9961 10.3447 10.918ZM6.00293 9.03125C6.14355 9.03125 6.25977 8.97852 6.35156 8.87305C6.44336 8.76758 6.48926 8.63672 6.48926 8.48047V7.18555L7.69629 6.49414C7.83691 6.41602 7.92969 6.30762 7.97461 6.16895C8.01953 6.03027 8.00293 5.90234 7.9248 5.78516C7.84668 5.66406 7.74219 5.58789 7.61133 5.55664C7.48047 5.52539 7.35059 5.54688 7.22168 5.62109L6.00293 6.3125L4.78418 5.62109C4.65137 5.54688 4.51953 5.52539 4.38867 5.55664C4.25781 5.58789 4.15332 5.66406 4.0752 5.78516C3.99707 5.90234 3.98047 6.03027 4.02539 6.16895C4.07031 6.30762 4.16504 6.41602 4.30957 6.49414L5.51074 7.18555V8.48047C5.51074 8.63672 5.55664 8.76758 5.64844 8.87305C5.74023 8.97852 5.8584 9.03125 6.00293 9.03125Z" fill="white"/>
</svg>
